<svg xmlns="http://www.w3.org/2000/svg" version="1.1" xmlns:xlink="http://www.w3.org/1999/xlink" xmlns:svgjs="http://svgjs.com/svgjs" width="1440" height="560" preserveAspectRatio="none" viewBox="0 0 1440 560"><g mask="url(&quot;#SvgjsMask1010&quot;)" fill="none"><rect width="1440" height="560" x="0" y="0" fill="rgba(51, 51, 51, 0.9)"></rect><path d="M-92.91 383.46L-92.91 383.46" stroke="rgba(247, 247, 247, 0.13)" stroke-width="1.5"></path><path d="M-92.91 383.46L-111.81 491.71" stroke="rgba(247, 247, 247, 0.13)" stroke-width="1.5"></path><path d="M-92.91 383.46L39.42 511.92" stroke="rgba(247, 247, 247, 0.13)" stroke-width="1.5"></path><path d="M-92.91 383.46L91.82 394.31" stroke="rgba(247, 247, 247, 0.13)" stroke-width="1.5"></path><path d="M-92.91 383.46L-41.6 706.65" stroke="rgba(247, 247, 247, 0.13)" stroke-width="1.5"></path><path d="M-92.91 383.46L217.24 510.49" stroke="rgba(247, 247, 247, 0.13)" stroke-width="1.5"></path><path d="M-111.81 491.71L-111.81 491.71" stroke="rgba(247, 247, 247, 0.13)" stroke-width="1.5"></path><path d="M-41.6 706.65L-41.6 706.65" stroke="rgba(247, 247, 247, 0.13)" stroke-width="1.5"></path><path d="M-41.6 706.65L48.89 687.18" stroke="rgba(247, 247, 247, 0.13)" stroke-width="1.5"></path><path d="M-41.6 706.65L39.42 511.92" stroke="rgba(247, 247, 247, 0.13)" stroke-width="1.5"></path><path d="M91.82 394.31L91.82 394.31" stroke="rgba(247, 247, 247, 0.13)" stroke-width="1.5"></path><path d="M91.82 394.31L39.42 511.92" stroke="rgba(247, 247, 247, 0.13)" stroke-width="1.5"></path><path d="M91.82 394.31L217.24 510.49" stroke="rgba(247, 247, 247, 0.13)" stroke-width="1.5"></path><path d="M91.82 394.31L-111.81 491.71" stroke="rgba(247, 247, 247, 0.13)" stroke-width="1.5"></path><path d="M91.82 394.31L356.47 397.51" stroke="rgba(247, 247, 247, 0.13)" stroke-width="1.5"></path><path d="M91.82 394.31L48.89 687.18" stroke="rgba(247, 247, 247, 0.13)" stroke-width="1.5"></path><path d="M39.42 511.92L39.42 511.92" stroke="rgba(247, 247, 247, 0.13)" stroke-width="1.5"></path><path d="M39.42 511.92L-111.81 491.71" stroke="rgba(247, 247, 247, 0.13)" stroke-width="1.5"></path><path d="M39.42 511.92L48.89 687.18" stroke="rgba(247, 247, 247, 0.13)" stroke-width="1.5"></path><path d="M39.42 511.92L217.24 510.49" stroke="rgba(247, 247, 247, 0.13)" stroke-width="1.5"></path><path d="M48.89 687.18L48.89 687.18" stroke="rgba(247, 247, 247, 0.13)" stroke-width="1.5"></path><path d="M48.89 687.18L242.77 688.9" stroke="rgba(247, 247, 247, 0.13)" stroke-width="1.5"></path><path d="M217.24 510.49L217.24 510.49" stroke="rgba(247, 247, 247, 0.13)" stroke-width="1.5"></path><path d="M217.24 510.49L354.09 559.37" stroke="rgba(247, 247, 247, 0.13)" stroke-width="1.5"></path><path d="M217.24 510.49L356.47 397.51" stroke="rgba(247, 247, 247, 0.13)" stroke-width="1.5"></path><path d="M217.24 510.49L242.77 688.9" stroke="rgba(247, 247, 247, 0.13)" stroke-width="1.5"></path><path d="M242.77 688.9L242.77 688.9" stroke="rgba(247, 247, 247, 0.13)" stroke-width="1.5"></path><path d="M242.77 688.9L398.66 672.86" stroke="rgba(247, 247, 247, 0.13)" stroke-width="1.5"></path><path d="M242.77 688.9L354.09 559.37" stroke="rgba(247, 247, 247, 0.13)" stroke-width="1.5"></path><path d="M242.77 688.9L505.43 663.83" stroke="rgba(247, 247, 247, 0.13)" stroke-width="1.5"></path><path d="M242.77 688.9L39.42 511.92" stroke="rgba(247, 247, 247, 0.13)" stroke-width="1.5"></path><path d="M356.47 397.51L356.47 397.51" stroke="rgba(247, 247, 247, 0.13)" stroke-width="1.5"></path><path d="M356.47 397.51L354.09 559.37" stroke="rgba(247, 247, 247, 0.13)" stroke-width="1.5"></path><path d="M354.09 559.37L354.09 559.37" stroke="rgba(247, 247, 247, 0.13)" stroke-width="1.5"></path><path d="M354.09 559.37L398.66 672.86" stroke="rgba(247, 247, 247, 0.13)" stroke-width="1.5"></path><path d="M398.66 672.86L398.66 672.86" stroke="rgba(247, 247, 247, 0.13)" stroke-width="1.5"></path><path d="M398.66 672.86L505.43 663.83" stroke="rgba(247, 247, 247, 0.13)" stroke-width="1.5"></path><path d="M398.66 672.86L523.15 562.43" stroke="rgba(247, 247, 247, 0.13)" stroke-width="1.5"></path><path d="M398.66 672.86L217.24 510.49" stroke="rgba(247, 247, 247, 0.13)" stroke-width="1.5"></path><path d="M398.66 672.86L665.67 656.81" stroke="rgba(247, 247, 247, 0.13)" stroke-width="1.5"></path><path d="M523.15 562.43L523.15 562.43" stroke="rgba(247, 247, 247, 0.13)" stroke-width="1.5"></path><path d="M523.15 562.43L505.43 663.83" stroke="rgba(247, 247, 247, 0.13)" stroke-width="1.5"></path><path d="M523.15 562.43L685.86 523.44" stroke="rgba(247, 247, 247, 0.13)" stroke-width="1.5"></path><path d="M523.15 562.43L354.09 559.37" stroke="rgba(247, 247, 247, 0.13)" stroke-width="1.5"></path><path d="M523.15 562.43L665.67 656.81" stroke="rgba(247, 247, 247, 0.13)" stroke-width="1.5"></path><path d="M505.43 663.83L505.43 663.83" stroke="rgba(247, 247, 247, 0.13)" stroke-width="1.5"></path><path d="M505.43 663.83L665.67 656.81" stroke="rgba(247, 247, 247, 0.13)" stroke-width="1.5"></path><path d="M505.43 663.83L354.09 559.37" stroke="rgba(247, 247, 247, 0.13)" stroke-width="1.5"></path><path d="M638.06 411.61L638.06 411.61" stroke="rgba(247, 247, 247, 0.13)" stroke-width="1.5"></path><path d="M638.06 411.61L685.86 523.44" stroke="rgba(247, 247, 247, 0.13)" stroke-width="1.5"></path><path d="M685.86 523.44L685.86 523.44" stroke="rgba(247, 247, 247, 0.13)" stroke-width="1.5"></path><path d="M685.86 523.44L665.67 656.81" stroke="rgba(247, 247, 247, 0.13)" stroke-width="1.5"></path><path d="M685.86 523.44L831.11 495.7" stroke="rgba(247, 247, 247, 0.13)" stroke-width="1.5"></path><path d="M665.67 656.81L665.67 656.81" stroke="rgba(247, 247, 247, 0.13)" stroke-width="1.5"></path><path d="M665.67 656.81L856.46 651.72" stroke="rgba(247, 247, 247, 0.13)" stroke-width="1.5"></path><path d="M801.39 258.42L801.39 258.42" stroke="rgba(247, 247, 247, 0.13)" stroke-width="1.5"></path><path d="M801.39 258.42L832.9 396.92" stroke="rgba(247, 247, 247, 0.13)" stroke-width="1.5"></path><path d="M801.39 258.42L966.43 361.44" stroke="rgba(247, 247, 247, 0.13)" stroke-width="1.5"></path><path d="M801.39 258.42L638.06 411.61" stroke="rgba(247, 247, 247, 0.13)" stroke-width="1.5"></path><path d="M801.39 258.42L831.11 495.7" stroke="rgba(247, 247, 247, 0.13)" stroke-width="1.5"></path><path d="M801.39 258.42L1000.43 87.24" stroke="rgba(247, 247, 247, 0.13)" stroke-width="1.5"></path><path d="M832.9 396.92L832.9 396.92" stroke="rgba(247, 247, 247, 0.13)" stroke-width="1.5"></path><path d="M832.9 396.92L831.11 495.7" stroke="rgba(247, 247, 247, 0.13)" stroke-width="1.5"></path><path d="M832.9 396.92L966.43 361.44" stroke="rgba(247, 247, 247, 0.13)" stroke-width="1.5"></path><path d="M832.9 396.92L939.25 524.56" stroke="rgba(247, 247, 247, 0.13)" stroke-width="1.5"></path><path d="M832.9 396.92L685.86 523.44" stroke="rgba(247, 247, 247, 0.13)" stroke-width="1.5"></path><path d="M831.11 495.7L831.11 495.7" stroke="rgba(247, 247, 247, 0.13)" stroke-width="1.5"></path><path d="M831.11 495.7L939.25 524.56" stroke="rgba(247, 247, 247, 0.13)" stroke-width="1.5"></path><path d="M831.11 495.7L856.46 651.72" stroke="rgba(247, 247, 247, 0.13)" stroke-width="1.5"></path><path d="M831.11 495.7L966.43 361.44" stroke="rgba(247, 247, 247, 0.13)" stroke-width="1.5"></path><path d="M831.11 495.7L638.06 411.61" stroke="rgba(247, 247, 247, 0.13)" stroke-width="1.5"></path><path d="M856.46 651.72L856.46 651.72" stroke="rgba(247, 247, 247, 0.13)" stroke-width="1.5"></path><path d="M856.46 651.72L1004.35 676.48" stroke="rgba(247, 247, 247, 0.13)" stroke-width="1.5"></path><path d="M856.46 651.72L939.25 524.56" stroke="rgba(247, 247, 247, 0.13)" stroke-width="1.5"></path><path d="M987.96 -78.91L987.96 -78.91" stroke="rgba(247, 247, 247, 0.13)" stroke-width="1.5"></path><path d="M987.96 -78.91L1102.04 -84.56" stroke="rgba(247, 247, 247, 0.13)" stroke-width="1.5"></path><path d="M987.96 -78.91L1000.43 87.24" stroke="rgba(247, 247, 247, 0.13)" stroke-width="1.5"></path><path d="M1000.43 87.24L1000.43 87.24" stroke="rgba(247, 247, 247, 0.13)" stroke-width="1.5"></path><path d="M1000.43 87.24L1151.18 111.33" stroke="rgba(247, 247, 247, 0.13)" stroke-width="1.5"></path><path d="M1000.43 87.24L1101.88 226.63" stroke="rgba(247, 247, 247, 0.13)" stroke-width="1.5"></path><path d="M966.43 361.44L966.43 361.44" stroke="rgba(247, 247, 247, 0.13)" stroke-width="1.5"></path><path d="M966.43 361.44L939.25 524.56" stroke="rgba(247, 247, 247, 0.13)" stroke-width="1.5"></path><path d="M966.43 361.44L1146.49 400.27" stroke="rgba(247, 247, 247, 0.13)" stroke-width="1.5"></path><path d="M966.43 361.44L1101.88 226.63" stroke="rgba(247, 247, 247, 0.13)" stroke-width="1.5"></path><path d="M939.25 524.56L939.25 524.56" stroke="rgba(247, 247, 247, 0.13)" stroke-width="1.5"></path><path d="M939.25 524.56L1004.35 676.48" stroke="rgba(247, 247, 247, 0.13)" stroke-width="1.5"></path><path d="M939.25 524.56L1146.49 400.27" stroke="rgba(247, 247, 247, 0.13)" stroke-width="1.5"></path><path d="M1004.35 676.48L1004.35 676.48" stroke="rgba(247, 247, 247, 0.13)" stroke-width="1.5"></path><path d="M1004.35 676.48L831.11 495.7" stroke="rgba(247, 247, 247, 0.13)" stroke-width="1.5"></path><path d="M1102.04 -84.56L1102.04 -84.56" stroke="rgba(247, 247, 247, 0.13)" stroke-width="1.5"></path><path d="M1102.04 -84.56L1275.73 -97.74" stroke="rgba(247, 247, 247, 0.13)" stroke-width="1.5"></path><path d="M1151.18 111.33L1151.18 111.33" stroke="rgba(247, 247, 247, 0.13)" stroke-width="1.5"></path><path d="M1151.18 111.33L1101.88 226.63" stroke="rgba(247, 247, 247, 0.13)" stroke-width="1.5"></path><path d="M1151.18 111.33L1286.89 54.49" stroke="rgba(247, 247, 247, 0.13)" stroke-width="1.5"></path><path d="M1151.18 111.33L1271.97 236.84" stroke="rgba(247, 247, 247, 0.13)" stroke-width="1.5"></path><path d="M1101.88 226.63L1101.88 226.63" stroke="rgba(247, 247, 247, 0.13)" stroke-width="1.5"></path><path d="M1101.88 226.63L1271.97 236.84" stroke="rgba(247, 247, 247, 0.13)" stroke-width="1.5"></path><path d="M1101.88 226.63L1146.49 400.27" stroke="rgba(247, 247, 247, 0.13)" stroke-width="1.5"></path><path d="M1101.88 226.63L1243.24 357.56" stroke="rgba(247, 247, 247, 0.13)" stroke-width="1.5"></path><path d="M1146.49 400.27L1146.49 400.27" stroke="rgba(247, 247, 247, 0.13)" stroke-width="1.5"></path><path d="M1146.49 400.27L1243.24 357.56" stroke="rgba(247, 247, 247, 0.13)" stroke-width="1.5"></path><path d="M1146.49 400.27L1261.75 509.6" stroke="rgba(247, 247, 247, 0.13)" stroke-width="1.5"></path><path d="M1275.73 -97.74L1275.73 -97.74" stroke="rgba(247, 247, 247, 0.13)" stroke-width="1.5"></path><path d="M1275.73 -97.74L1286.89 54.49" stroke="rgba(247, 247, 247, 0.13)" stroke-width="1.5"></path><path d="M1275.73 -97.74L1449.57 -96.14" stroke="rgba(247, 247, 247, 0.13)" stroke-width="1.5"></path><path d="M1275.73 -97.74L1425.66 53.66" stroke="rgba(247, 247, 247, 0.13)" stroke-width="1.5"></path><path d="M1275.73 -97.74L1151.18 111.33" stroke="rgba(247, 247, 247, 0.13)" stroke-width="1.5"></path><path d="M1286.89 54.49L1286.89 54.49" stroke="rgba(247, 247, 247, 0.13)" stroke-width="1.5"></path><path d="M1286.89 54.49L1425.66 53.66" stroke="rgba(247, 247, 247, 0.13)" stroke-width="1.5"></path><path d="M1286.89 54.49L1271.97 236.84" stroke="rgba(247, 247, 247, 0.13)" stroke-width="1.5"></path><path d="M1286.89 54.49L1452.61 192.44" stroke="rgba(247, 247, 247, 0.13)" stroke-width="1.5"></path><path d="M1286.89 54.49L1449.57 -96.14" stroke="rgba(247, 247, 247, 0.13)" stroke-width="1.5"></path><path d="M1271.97 236.84L1271.97 236.84" stroke="rgba(247, 247, 247, 0.13)" stroke-width="1.5"></path><path d="M1271.97 236.84L1243.24 357.56" stroke="rgba(247, 247, 247, 0.13)" stroke-width="1.5"></path><path d="M1271.97 236.84L1452.61 192.44" stroke="rgba(247, 247, 247, 0.13)" stroke-width="1.5"></path><path d="M1243.24 357.56L1243.24 357.56" stroke="rgba(247, 247, 247, 0.13)" stroke-width="1.5"></path><path d="M1261.75 509.6L1261.75 509.6" stroke="rgba(247, 247, 247, 0.13)" stroke-width="1.5"></path><path d="M1261.75 509.6L1264.04 650.82" stroke="rgba(247, 247, 247, 0.13)" stroke-width="1.5"></path><path d="M1261.75 509.6L1243.24 357.56" stroke="rgba(247, 247, 247, 0.13)" stroke-width="1.5"></path><path d="M1261.75 509.6L1428.07 525.03" stroke="rgba(247, 247, 247, 0.13)" stroke-width="1.5"></path><path d="M1264.04 650.82L1264.04 650.82" stroke="rgba(247, 247, 247, 0.13)" stroke-width="1.5"></path><path d="M1264.04 650.82L1415.11 685.35" stroke="rgba(247, 247, 247, 0.13)" stroke-width="1.5"></path><path d="M1264.04 650.82L1428.07 525.03" stroke="rgba(247, 247, 247, 0.13)" stroke-width="1.5"></path><path d="M1264.04 650.82L1004.35 676.48" stroke="rgba(247, 247, 247, 0.13)" stroke-width="1.5"></path><path d="M1264.04 650.82L1146.49 400.27" stroke="rgba(247, 247, 247, 0.13)" stroke-width="1.5"></path><path d="M1449.57 -96.14L1449.57 -96.14" stroke="rgba(247, 247, 247, 0.13)" stroke-width="1.5"></path><path d="M1449.57 -96.14L1425.66 53.66" stroke="rgba(247, 247, 247, 0.13)" stroke-width="1.5"></path><path d="M1449.57 -96.14L1607.35 -100.66" stroke="rgba(247, 247, 247, 0.13)" stroke-width="1.5"></path><path d="M1425.66 53.66L1425.66 53.66" stroke="rgba(247, 247, 247, 0.13)" stroke-width="1.5"></path><path d="M1425.66 53.66L1452.61 192.44" stroke="rgba(247, 247, 247, 0.13)" stroke-width="1.5"></path><path d="M1425.66 53.66L1603.2 193.76" stroke="rgba(247, 247, 247, 0.13)" stroke-width="1.5"></path><path d="M1425.66 53.66L1607.35 -100.66" stroke="rgba(247, 247, 247, 0.13)" stroke-width="1.5"></path><path d="M1452.61 192.44L1452.61 192.44" stroke="rgba(247, 247, 247, 0.13)" stroke-width="1.5"></path><path d="M1452.61 192.44L1603.2 193.76" stroke="rgba(247, 247, 247, 0.13)" stroke-width="1.5"></path><path d="M1404.33 379.74L1404.33 379.74" stroke="rgba(247, 247, 247, 0.13)" stroke-width="1.5"></path><path d="M1404.33 379.74L1428.07 525.03" stroke="rgba(247, 247, 247, 0.13)" stroke-width="1.5"></path><path d="M1404.33 379.74L1243.24 357.56" stroke="rgba(247, 247, 247, 0.13)" stroke-width="1.5"></path><path d="M1404.33 379.74L1584.93 351.49" stroke="rgba(247, 247, 247, 0.13)" stroke-width="1.5"></path><path d="M1404.33 379.74L1261.75 509.6" stroke="rgba(247, 247, 247, 0.13)" stroke-width="1.5"></path><path d="M1404.33 379.74L1452.61 192.44" stroke="rgba(247, 247, 247, 0.13)" stroke-width="1.5"></path><path d="M1428.07 525.03L1428.07 525.03" stroke="rgba(247, 247, 247, 0.13)" stroke-width="1.5"></path><path d="M1428.07 525.03L1553.09 513.79" stroke="rgba(247, 247, 247, 0.13)" stroke-width="1.5"></path><path d="M1415.11 685.35L1415.11 685.35" stroke="rgba(247, 247, 247, 0.13)" stroke-width="1.5"></path><path d="M1415.11 685.35L1428.07 525.03" stroke="rgba(247, 247, 247, 0.13)" stroke-width="1.5"></path><path d="M1415.11 685.35L1596.24 658.96" stroke="rgba(247, 247, 247, 0.13)" stroke-width="1.5"></path><path d="M1415.11 685.35L1553.09 513.79" stroke="rgba(247, 247, 247, 0.13)" stroke-width="1.5"></path><path d="M1415.11 685.35L1261.75 509.6" stroke="rgba(247, 247, 247, 0.13)" stroke-width="1.5"></path><path d="M1415.11 685.35L1404.33 379.74" stroke="rgba(247, 247, 247, 0.13)" stroke-width="1.5"></path><path d="M1607.35 -100.66L1607.35 -100.66" stroke="rgba(247, 247, 247, 0.13)" stroke-width="1.5"></path><path d="M1607.35 -100.66L1603.2 193.76" stroke="rgba(247, 247, 247, 0.13)" stroke-width="1.5"></path><path d="M1607.35 -100.66L1452.61 192.44" stroke="rgba(247, 247, 247, 0.13)" stroke-width="1.5"></path><path d="M1607.35 -100.66L1275.73 -97.74" stroke="rgba(247, 247, 247, 0.13)" stroke-width="1.5"></path><path d="M1603.2 193.76L1603.2 193.76" stroke="rgba(247, 247, 247, 0.13)" stroke-width="1.5"></path><path d="M1603.2 193.76L1584.93 351.49" stroke="rgba(247, 247, 247, 0.13)" stroke-width="1.5"></path><path d="M1584.93 351.49L1584.93 351.49" stroke="rgba(247, 247, 247, 0.13)" stroke-width="1.5"></path><path d="M1584.93 351.49L1553.09 513.79" stroke="rgba(247, 247, 247, 0.13)" stroke-width="1.5"></path><path d="M1584.93 351.49L1452.61 192.44" stroke="rgba(247, 247, 247, 0.13)" stroke-width="1.5"></path><path d="M1584.93 351.49L1428.07 525.03" stroke="rgba(247, 247, 247, 0.13)" stroke-width="1.5"></path><path d="M1584.93 351.49L1596.24 658.96" stroke="rgba(247, 247, 247, 0.13)" stroke-width="1.5"></path><path d="M1553.09 513.79L1553.09 513.79" stroke="rgba(247, 247, 247, 0.13)" stroke-width="1.5"></path><path d="M1553.09 513.79L1596.24 658.96" stroke="rgba(247, 247, 247, 0.13)" stroke-width="1.5"></path><path d="M1553.09 513.79L1404.33 379.74" stroke="rgba(247, 247, 247, 0.13)" stroke-width="1.5"></path><path d="M1553.09 513.79L1261.75 509.6" stroke="rgba(247, 247, 247, 0.13)" stroke-width="1.5"></path><path d="M1596.24 658.96L1596.24 658.96" stroke="rgba(247, 247, 247, 0.13)" stroke-width="1.5"></path><path d="M1596.24 658.96L1428.07 525.03" stroke="rgba(247, 247, 247, 0.13)" stroke-width="1.5"></path><path d="M1596.24 658.96L1264.04 650.82" stroke="rgba(247, 247, 247, 0.13)" stroke-width="1.5"></path><path d="M1596.24 658.96L1404.33 379.74" stroke="rgba(247, 247, 247, 0.13)" stroke-width="1.5"></path><circle r="5" cx="-92.91" cy="383.46" fill="rgba(247, 247, 247, 0.13)"></circle><circle r="5" cx="-111.81" cy="491.71" fill="rgba(247, 247, 247, 0.13)"></circle><circle r="5" cx="-41.6" cy="706.65" fill="rgba(247, 247, 247, 0.13)"></circle><circle r="5" cx="91.82" cy="394.31" fill="rgba(247, 247, 247, 0.13)"></circle><circle r="5" cx="39.42" cy="511.92" fill="rgba(247, 247, 247, 0.13)"></circle><circle r="5" cx="48.89" cy="687.18" fill="rgba(247, 247, 247, 0.13)"></circle><circle r="5" cx="217.24" cy="510.49" fill="rgba(247, 247, 247, 0.13)"></circle><circle r="5" cx="242.77" cy="688.9" fill="rgba(247, 247, 247, 0.13)"></circle><circle r="5" cx="356.47" cy="397.51" fill="rgba(247, 247, 247, 0.13)"></circle><circle r="5" cx="354.09" cy="559.37" fill="rgba(247, 247, 247, 0.13)"></circle><circle r="5" cx="398.66" cy="672.86" fill="rgba(247, 247, 247, 0.13)"></circle><circle r="5" cx="523.15" cy="562.43" fill="rgba(247, 247, 247, 0.13)"></circle><circle r="5" cx="505.43" cy="663.83" fill="rgba(247, 247, 247, 0.13)"></circle><circle r="5" cx="638.06" cy="411.61" fill="rgba(247, 247, 247, 0.13)"></circle><circle r="5" cx="685.86" cy="523.44" fill="rgba(247, 247, 247, 0.13)"></circle><circle r="5" cx="665.67" cy="656.81" fill="rgba(247, 247, 247, 0.13)"></circle><circle r="5" cx="801.39" cy="258.42" fill="rgba(247, 247, 247, 0.13)"></circle><circle r="5" cx="832.9" cy="396.92" fill="rgba(247, 247, 247, 0.13)"></circle><circle r="5" cx="831.11" cy="495.7" fill="rgba(247, 247, 247, 0.13)"></circle><circle r="5" cx="856.46" cy="651.72" fill="rgba(247, 247, 247, 0.13)"></circle><circle r="5" cx="987.96" cy="-78.91" fill="rgba(247, 247, 247, 0.13)"></circle><circle r="5" cx="1000.43" cy="87.24" fill="rgba(247, 247, 247, 0.13)"></circle><circle r="5" cx="966.43" cy="361.44" fill="rgba(247, 247, 247, 0.13)"></circle><circle r="5" cx="939.25" cy="524.56" fill="rgba(247, 247, 247, 0.13)"></circle><circle r="5" cx="1004.35" cy="676.48" fill="rgba(247, 247, 247, 0.13)"></circle><circle r="5" cx="1102.04" cy="-84.56" fill="rgba(247, 247, 247, 0.13)"></circle><circle r="5" cx="1151.18" cy="111.33" fill="rgba(247, 247, 247, 0.13)"></circle><circle r="5" cx="1101.88" cy="226.63" fill="rgba(247, 247, 247, 0.13)"></circle><circle r="5" cx="1146.49" cy="400.27" fill="rgba(247, 247, 247, 0.13)"></circle><circle r="5" cx="1275.73" cy="-97.74" fill="rgba(247, 247, 247, 0.13)"></circle><circle r="5" cx="1286.89" cy="54.49" fill="rgba(247, 247, 247, 0.13)"></circle><circle r="5" cx="1271.97" cy="236.84" fill="rgba(247, 247, 247, 0.13)"></circle><circle r="5" cx="1243.24" cy="357.56" fill="rgba(247, 247, 247, 0.13)"></circle><circle r="5" cx="1261.75" cy="509.6" fill="rgba(247, 247, 247, 0.13)"></circle><circle r="5" cx="1264.04" cy="650.82" fill="rgba(247, 247, 247, 0.13)"></circle><circle r="5" cx="1449.57" cy="-96.14" fill="rgba(247, 247, 247, 0.13)"></circle><circle r="5" cx="1425.66" cy="53.66" fill="rgba(247, 247, 247, 0.13)"></circle><circle r="5" cx="1452.61" cy="192.44" fill="rgba(247, 247, 247, 0.13)"></circle><circle r="5" cx="1404.33" cy="379.74" fill="rgba(247, 247, 247, 0.13)"></circle><circle r="5" cx="1428.07" cy="525.03" fill="rgba(247, 247, 247, 0.13)"></circle><circle r="5" cx="1415.11" cy="685.35" fill="rgba(247, 247, 247, 0.13)"></circle><circle r="5" cx="1607.35" cy="-100.66" fill="rgba(247, 247, 247, 0.13)"></circle><circle r="5" cx="1603.2" cy="193.76" fill="rgba(247, 247, 247, 0.13)"></circle><circle r="5" cx="1584.93" cy="351.49" fill="rgba(247, 247, 247, 0.13)"></circle><circle r="5" cx="1553.09" cy="513.79" fill="rgba(247, 247, 247, 0.13)"></circle><circle r="5" cx="1596.24" cy="658.96" fill="rgba(247, 247, 247, 0.13)"></circle><path d="M-64.74 495.84L-64.74 495.84" stroke="hsla(44.89999999999998, 100%, 65%, 0.51)" stroke-width="1.5"></path><path d="M-64.74 495.84L91.17 520.2" stroke="hsla(44.89999999999998, 100%, 65%, 0.51)" stroke-width="1.5"></path><path d="M-64.74 495.84L-64.21 676.84" stroke="hsla(44.89999999999998, 100%, 65%, 0.51)" stroke-width="1.5"></path><path d="M-64.74 495.84L54.17 677.39" stroke="hsla(44.89999999999998, 100%, 65%, 0.51)" stroke-width="1.5"></path><path d="M-64.74 495.84L194.84 639.66" stroke="hsla(44.89999999999998, 100%, 65%, 0.51)" stroke-width="1.5"></path><path d="M-64.74 495.84L348.82 506.8" stroke="hsla(44.89999999999998, 100%, 65%, 0.51)" stroke-width="1.5"></path><path d="M-64.74 495.84L379.31 704.5" stroke="hsla(44.89999999999998, 100%, 65%, 0.51)" stroke-width="1.5"></path><path d="M91.17 520.2L91.17 520.2" stroke="hsla(44.89999999999998, 100%, 65%, 0.51)" stroke-width="1.5"></path><path d="M91.17 520.2L194.84 639.66" stroke="hsla(44.89999999999998, 100%, 65%, 0.51)" stroke-width="1.5"></path><path d="M194.84 639.66L194.84 639.66" stroke="hsla(44.89999999999998, 100%, 65%, 0.51)" stroke-width="1.5"></path><path d="M194.84 639.66L54.17 677.39" stroke="hsla(44.89999999999998, 100%, 65%, 0.51)" stroke-width="1.5"></path><path d="M194.84 639.66L379.31 704.5" stroke="hsla(44.89999999999998, 100%, 65%, 0.51)" stroke-width="1.5"></path><path d="M379.31 704.5L379.31 704.5" stroke="hsla(44.89999999999998, 100%, 65%, 0.51)" stroke-width="1.5"></path><path d="M379.31 704.5L544.15 673.3" stroke="hsla(44.89999999999998, 100%, 65%, 0.51)" stroke-width="1.5"></path><path d="M379.31 704.5L348.82 506.8" stroke="hsla(44.89999999999998, 100%, 65%, 0.51)" stroke-width="1.5"></path><path d="M379.31 704.5L548.21 501.15" stroke="hsla(44.89999999999998, 100%, 65%, 0.51)" stroke-width="1.5"></path><path d="M834.64 561.86L834.64 561.86" stroke="hsla(44.89999999999998, 100%, 65%, 0.51)" stroke-width="1.5"></path><path d="M834.64 561.86L849.06 643.65" stroke="hsla(44.89999999999998, 100%, 65%, 0.51)" stroke-width="1.5"></path><path d="M834.64 561.86L945.07 558.92" stroke="hsla(44.89999999999998, 100%, 65%, 0.51)" stroke-width="1.5"></path><path d="M849.06 643.65L849.06 643.65" stroke="hsla(44.89999999999998, 100%, 65%, 0.51)" stroke-width="1.5"></path><path d="M849.06 643.65L945.07 558.92" stroke="hsla(44.89999999999998, 100%, 65%, 0.51)" stroke-width="1.5"></path><path d="M849.06 643.65L989.26 703.22" stroke="hsla(44.89999999999998, 100%, 65%, 0.51)" stroke-width="1.5"></path><path d="M849.06 643.65L660.09 706.32" stroke="hsla(44.89999999999998, 100%, 65%, 0.51)" stroke-width="1.5"></path><path d="M849.06 643.65L651.71 509.76" stroke="hsla(44.89999999999998, 100%, 65%, 0.51)" stroke-width="1.5"></path><path d="M1123.33 192.05L1123.33 192.05" stroke="hsla(44.89999999999998, 100%, 65%, 0.51)" stroke-width="1.5"></path><path d="M1123.33 192.05L1280.29 212.82" stroke="hsla(44.89999999999998, 100%, 65%, 0.51)" stroke-width="1.5"></path><path d="M1123.33 192.05L1299.75 96.27" stroke="hsla(44.89999999999998, 100%, 65%, 0.51)" stroke-width="1.5"></path><path d="M1123.33 192.05L1120.62 394.7" stroke="hsla(44.89999999999998, 100%, 65%, 0.51)" stroke-width="1.5"></path><path d="M1120.62 394.7L1120.62 394.7" stroke="hsla(44.89999999999998, 100%, 65%, 0.51)" stroke-width="1.5"></path><path d="M1120.62 394.7L1245.1 370.73" stroke="hsla(44.89999999999998, 100%, 65%, 0.51)" stroke-width="1.5"></path><path d="M1120.62 394.7L1132.9 546.85" stroke="hsla(44.89999999999998, 100%, 65%, 0.51)" stroke-width="1.5"></path><path d="M1132.9 546.85L1132.9 546.85" stroke="hsla(44.89999999999998, 100%, 65%, 0.51)" stroke-width="1.5"></path><path d="M1132.9 546.85L1253.3 525.25" stroke="hsla(44.89999999999998, 100%, 65%, 0.51)" stroke-width="1.5"></path><path d="M1132.9 546.85L1143.69 697.28" stroke="hsla(44.89999999999998, 100%, 65%, 0.51)" stroke-width="1.5"></path><path d="M1253.3 525.25L1253.3 525.25" stroke="hsla(44.89999999999998, 100%, 65%, 0.51)" stroke-width="1.5"></path><path d="M1253.3 525.25L1299.53 647.88" stroke="hsla(44.89999999999998, 100%, 65%, 0.51)" stroke-width="1.5"></path><path d="M1253.3 525.25L1245.1 370.73" stroke="hsla(44.89999999999998, 100%, 65%, 0.51)" stroke-width="1.5"></path><path d="M1541.25 -46.57L1541.25 -46.57" stroke="hsla(44.89999999999998, 100%, 65%, 0.51)" stroke-width="1.5"></path><path d="M1541.25 -46.57L1446.8 -51.52" stroke="hsla(44.89999999999998, 100%, 65%, 0.51)" stroke-width="1.5"></path><path d="M1541.25 -46.57L1460.15 58.69" stroke="hsla(44.89999999999998, 100%, 65%, 0.51)" stroke-width="1.5"></path><path d="M1557.82 108.43L1557.82 108.43" stroke="hsla(44.89999999999998, 100%, 65%, 0.51)" stroke-width="1.5"></path><path d="M1557.82 108.43L1570.23 201.36" stroke="hsla(44.89999999999998, 100%, 65%, 0.51)" stroke-width="1.5"></path><path d="M1557.82 108.43L1460.15 58.69" stroke="hsla(44.89999999999998, 100%, 65%, 0.51)" stroke-width="1.5"></path><path d="M1557.82 108.43L1541.25 -46.57" stroke="hsla(44.89999999999998, 100%, 65%, 0.51)" stroke-width="1.5"></path><path d="M1557.82 108.43L1443.63 226.94" stroke="hsla(44.89999999999998, 100%, 65%, 0.51)" stroke-width="1.5"></path><path d="M1557.82 108.43L1446.8 -51.52" stroke="hsla(44.89999999999998, 100%, 65%, 0.51)" stroke-width="1.5"></path><path d="M1557.82 108.43L1564.09 360.55" stroke="hsla(44.89999999999998, 100%, 65%, 0.51)" stroke-width="1.5"></path><path d="M-64.21 676.84L-64.21 676.84" stroke="hsla(44.89999999999998, 100%, 65%, 0.51)" stroke-width="1.5"></path><path d="M-64.21 676.84L54.17 677.39" stroke="hsla(44.89999999999998, 100%, 65%, 0.51)" stroke-width="1.5"></path><path d="M-64.21 676.84L91.17 520.2" stroke="hsla(44.89999999999998, 100%, 65%, 0.51)" stroke-width="1.5"></path><path d="M-64.21 676.84L194.84 639.66" stroke="hsla(44.89999999999998, 100%, 65%, 0.51)" stroke-width="1.5"></path><path d="M-64.21 676.84L379.31 704.5" stroke="hsla(44.89999999999998, 100%, 65%, 0.51)" stroke-width="1.5"></path><path d="M54.17 677.39L54.17 677.39" stroke="hsla(44.89999999999998, 100%, 65%, 0.51)" stroke-width="1.5"></path><path d="M54.17 677.39L91.17 520.2" stroke="hsla(44.89999999999998, 100%, 65%, 0.51)" stroke-width="1.5"></path><path d="M348.82 506.8L348.82 506.8" stroke="hsla(44.89999999999998, 100%, 65%, 0.51)" stroke-width="1.5"></path><path d="M348.82 506.8L548.21 501.15" stroke="hsla(44.89999999999998, 100%, 65%, 0.51)" stroke-width="1.5"></path><path d="M537.7 403.84L537.7 403.84" stroke="hsla(44.89999999999998, 100%, 65%, 0.51)" stroke-width="1.5"></path><path d="M537.7 403.84L548.21 501.15" stroke="hsla(44.89999999999998, 100%, 65%, 0.51)" stroke-width="1.5"></path><path d="M537.7 403.84L651.71 509.76" stroke="hsla(44.89999999999998, 100%, 65%, 0.51)" stroke-width="1.5"></path><path d="M537.7 403.84L702.1 385.11" stroke="hsla(44.89999999999998, 100%, 65%, 0.51)" stroke-width="1.5"></path><path d="M537.7 403.84L348.82 506.8" stroke="hsla(44.89999999999998, 100%, 65%, 0.51)" stroke-width="1.5"></path><path d="M548.21 501.15L548.21 501.15" stroke="hsla(44.89999999999998, 100%, 65%, 0.51)" stroke-width="1.5"></path><path d="M544.15 673.3L544.15 673.3" stroke="hsla(44.89999999999998, 100%, 65%, 0.51)" stroke-width="1.5"></path><path d="M544.15 673.3L660.09 706.32" stroke="hsla(44.89999999999998, 100%, 65%, 0.51)" stroke-width="1.5"></path><path d="M544.15 673.3L548.21 501.15" stroke="hsla(44.89999999999998, 100%, 65%, 0.51)" stroke-width="1.5"></path><path d="M544.15 673.3L651.71 509.76" stroke="hsla(44.89999999999998, 100%, 65%, 0.51)" stroke-width="1.5"></path><path d="M544.15 673.3L348.82 506.8" stroke="hsla(44.89999999999998, 100%, 65%, 0.51)" stroke-width="1.5"></path><path d="M544.15 673.3L537.7 403.84" stroke="hsla(44.89999999999998, 100%, 65%, 0.51)" stroke-width="1.5"></path><path d="M702.1 385.11L702.1 385.11" stroke="hsla(44.89999999999998, 100%, 65%, 0.51)" stroke-width="1.5"></path><path d="M702.1 385.11L651.71 509.76" stroke="hsla(44.89999999999998, 100%, 65%, 0.51)" stroke-width="1.5"></path><path d="M702.1 385.11L852.26 337.91" stroke="hsla(44.89999999999998, 100%, 65%, 0.51)" stroke-width="1.5"></path><path d="M651.71 509.76L651.71 509.76" stroke="hsla(44.89999999999998, 100%, 65%, 0.51)" stroke-width="1.5"></path><path d="M651.71 509.76L548.21 501.15" stroke="hsla(44.89999999999998, 100%, 65%, 0.51)" stroke-width="1.5"></path><path d="M660.09 706.32L660.09 706.32" stroke="hsla(44.89999999999998, 100%, 65%, 0.51)" stroke-width="1.5"></path><path d="M660.09 706.32L651.71 509.76" stroke="hsla(44.89999999999998, 100%, 65%, 0.51)" stroke-width="1.5"></path><path d="M660.09 706.32L834.64 561.86" stroke="hsla(44.89999999999998, 100%, 65%, 0.51)" stroke-width="1.5"></path><path d="M660.09 706.32L548.21 501.15" stroke="hsla(44.89999999999998, 100%, 65%, 0.51)" stroke-width="1.5"></path><path d="M852.26 337.91L852.26 337.91" stroke="hsla(44.89999999999998, 100%, 65%, 0.51)" stroke-width="1.5"></path><path d="M852.26 337.91L971.36 358.76" stroke="hsla(44.89999999999998, 100%, 65%, 0.51)" stroke-width="1.5"></path><path d="M852.26 337.91L834.64 561.86" stroke="hsla(44.89999999999998, 100%, 65%, 0.51)" stroke-width="1.5"></path><path d="M852.26 337.91L945.07 558.92" stroke="hsla(44.89999999999998, 100%, 65%, 0.51)" stroke-width="1.5"></path><path d="M852.26 337.91L651.71 509.76" stroke="hsla(44.89999999999998, 100%, 65%, 0.51)" stroke-width="1.5"></path><path d="M971.36 358.76L971.36 358.76" stroke="hsla(44.89999999999998, 100%, 65%, 0.51)" stroke-width="1.5"></path><path d="M945.07 558.92L945.07 558.92" stroke="hsla(44.89999999999998, 100%, 65%, 0.51)" stroke-width="1.5"></path><path d="M989.26 703.22L989.26 703.22" stroke="hsla(44.89999999999998, 100%, 65%, 0.51)" stroke-width="1.5"></path><path d="M989.26 703.22L945.07 558.92" stroke="hsla(44.89999999999998, 100%, 65%, 0.51)" stroke-width="1.5"></path><path d="M989.26 703.22L1143.69 697.28" stroke="hsla(44.89999999999998, 100%, 65%, 0.51)" stroke-width="1.5"></path><path d="M989.26 703.22L834.64 561.86" stroke="hsla(44.89999999999998, 100%, 65%, 0.51)" stroke-width="1.5"></path><path d="M1143.69 697.28L1143.69 697.28" stroke="hsla(44.89999999999998, 100%, 65%, 0.51)" stroke-width="1.5"></path><path d="M1143.69 697.28L1299.53 647.88" stroke="hsla(44.89999999999998, 100%, 65%, 0.51)" stroke-width="1.5"></path><path d="M1143.69 697.28L1253.3 525.25" stroke="hsla(44.89999999999998, 100%, 65%, 0.51)" stroke-width="1.5"></path><path d="M1143.69 697.28L945.07 558.92" stroke="hsla(44.89999999999998, 100%, 65%, 0.51)" stroke-width="1.5"></path><path d="M1143.69 697.28L1411.82 638.36" stroke="hsla(44.89999999999998, 100%, 65%, 0.51)" stroke-width="1.5"></path><path d="M1311.36 -61.57L1311.36 -61.57" stroke="hsla(44.89999999999998, 100%, 65%, 0.51)" stroke-width="1.5"></path><path d="M1311.36 -61.57L1446.8 -51.52" stroke="hsla(44.89999999999998, 100%, 65%, 0.51)" stroke-width="1.5"></path><path d="M1311.36 -61.57L1299.75 96.27" stroke="hsla(44.89999999999998, 100%, 65%, 0.51)" stroke-width="1.5"></path><path d="M1311.36 -61.57L1460.15 58.69" stroke="hsla(44.89999999999998, 100%, 65%, 0.51)" stroke-width="1.5"></path><path d="M1299.75 96.27L1299.75 96.27" stroke="hsla(44.89999999999998, 100%, 65%, 0.51)" stroke-width="1.5"></path><path d="M1299.75 96.27L1280.29 212.82" stroke="hsla(44.89999999999998, 100%, 65%, 0.51)" stroke-width="1.5"></path><path d="M1299.75 96.27L1460.15 58.69" stroke="hsla(44.89999999999998, 100%, 65%, 0.51)" stroke-width="1.5"></path><path d="M1280.29 212.82L1280.29 212.82" stroke="hsla(44.89999999999998, 100%, 65%, 0.51)" stroke-width="1.5"></path><path d="M1280.29 212.82L1245.1 370.73" stroke="hsla(44.89999999999998, 100%, 65%, 0.51)" stroke-width="1.5"></path><path d="M1245.1 370.73L1245.1 370.73" stroke="hsla(44.89999999999998, 100%, 65%, 0.51)" stroke-width="1.5"></path><path d="M1245.1 370.73L1414.31 337.93" stroke="hsla(44.89999999999998, 100%, 65%, 0.51)" stroke-width="1.5"></path><path d="M1245.1 370.73L1132.9 546.85" stroke="hsla(44.89999999999998, 100%, 65%, 0.51)" stroke-width="1.5"></path><path d="M1245.1 370.73L1123.33 192.05" stroke="hsla(44.89999999999998, 100%, 65%, 0.51)" stroke-width="1.5"></path><path d="M1299.53 647.88L1299.53 647.88" stroke="hsla(44.89999999999998, 100%, 65%, 0.51)" stroke-width="1.5"></path><path d="M1299.53 647.88L1411.82 638.36" stroke="hsla(44.89999999999998, 100%, 65%, 0.51)" stroke-width="1.5"></path><path d="M1446.8 -51.52L1446.8 -51.52" stroke="hsla(44.89999999999998, 100%, 65%, 0.51)" stroke-width="1.5"></path><path d="M1446.8 -51.52L1460.15 58.69" stroke="hsla(44.89999999999998, 100%, 65%, 0.51)" stroke-width="1.5"></path><path d="M1460.15 58.69L1460.15 58.69" stroke="hsla(44.89999999999998, 100%, 65%, 0.51)" stroke-width="1.5"></path><path d="M1443.63 226.94L1443.63 226.94" stroke="hsla(44.89999999999998, 100%, 65%, 0.51)" stroke-width="1.5"></path><path d="M1443.63 226.94L1414.31 337.93" stroke="hsla(44.89999999999998, 100%, 65%, 0.51)" stroke-width="1.5"></path><path d="M1443.63 226.94L1570.23 201.36" stroke="hsla(44.89999999999998, 100%, 65%, 0.51)" stroke-width="1.5"></path><path d="M1443.63 226.94L1280.29 212.82" stroke="hsla(44.89999999999998, 100%, 65%, 0.51)" stroke-width="1.5"></path><path d="M1443.63 226.94L1460.15 58.69" stroke="hsla(44.89999999999998, 100%, 65%, 0.51)" stroke-width="1.5"></path><path d="M1443.63 226.94L1564.09 360.55" stroke="hsla(44.89999999999998, 100%, 65%, 0.51)" stroke-width="1.5"></path><path d="M1414.31 337.93L1414.31 337.93" stroke="hsla(44.89999999999998, 100%, 65%, 0.51)" stroke-width="1.5"></path><path d="M1432.58 551.25L1432.58 551.25" stroke="hsla(44.89999999999998, 100%, 65%, 0.51)" stroke-width="1.5"></path><path d="M1432.58 551.25L1411.82 638.36" stroke="hsla(44.89999999999998, 100%, 65%, 0.51)" stroke-width="1.5"></path><path d="M1432.58 551.25L1299.53 647.88" stroke="hsla(44.89999999999998, 100%, 65%, 0.51)" stroke-width="1.5"></path><path d="M1432.58 551.25L1603.91 502.27" stroke="hsla(44.89999999999998, 100%, 65%, 0.51)" stroke-width="1.5"></path><path d="M1432.58 551.25L1253.3 525.25" stroke="hsla(44.89999999999998, 100%, 65%, 0.51)" stroke-width="1.5"></path><path d="M1411.82 638.36L1411.82 638.36" stroke="hsla(44.89999999999998, 100%, 65%, 0.51)" stroke-width="1.5"></path><path d="M1411.82 638.36L1539.69 700.83" stroke="hsla(44.89999999999998, 100%, 65%, 0.51)" stroke-width="1.5"></path><path d="M1411.82 638.36L1253.3 525.25" stroke="hsla(44.89999999999998, 100%, 65%, 0.51)" stroke-width="1.5"></path><path d="M1411.82 638.36L1603.91 502.27" stroke="hsla(44.89999999999998, 100%, 65%, 0.51)" stroke-width="1.5"></path><path d="M1570.23 201.36L1570.23 201.36" stroke="hsla(44.89999999999998, 100%, 65%, 0.51)" stroke-width="1.5"></path><path d="M1570.23 201.36L1564.09 360.55" stroke="hsla(44.89999999999998, 100%, 65%, 0.51)" stroke-width="1.5"></path><path d="M1570.23 201.36L1460.15 58.69" stroke="hsla(44.89999999999998, 100%, 65%, 0.51)" stroke-width="1.5"></path><path d="M1570.23 201.36L1414.31 337.93" stroke="hsla(44.89999999999998, 100%, 65%, 0.51)" stroke-width="1.5"></path><path d="M1564.09 360.55L1564.09 360.55" stroke="hsla(44.89999999999998, 100%, 65%, 0.51)" stroke-width="1.5"></path><path d="M1564.09 360.55L1603.91 502.27" stroke="hsla(44.89999999999998, 100%, 65%, 0.51)" stroke-width="1.5"></path><path d="M1564.09 360.55L1414.31 337.93" stroke="hsla(44.89999999999998, 100%, 65%, 0.51)" stroke-width="1.5"></path><path d="M1603.91 502.27L1603.91 502.27" stroke="hsla(44.89999999999998, 100%, 65%, 0.51)" stroke-width="1.5"></path><path d="M1603.91 502.27L1539.69 700.83" stroke="hsla(44.89999999999998, 100%, 65%, 0.51)" stroke-width="1.5"></path><path d="M1539.69 700.83L1539.69 700.83" stroke="hsla(44.89999999999998, 100%, 65%, 0.51)" stroke-width="1.5"></path><path d="M1539.69 700.83L1432.58 551.25" stroke="hsla(44.89999999999998, 100%, 65%, 0.51)" stroke-width="1.5"></path><path d="M1539.69 700.83L1299.53 647.88" stroke="hsla(44.89999999999998, 100%, 65%, 0.51)" stroke-width="1.5"></path><path d="M1539.69 700.83L1253.3 525.25" stroke="hsla(44.89999999999998, 100%, 65%, 0.51)" stroke-width="1.5"></path><circle r="25" cx="-64.74" cy="495.84" fill="url(#SvgjsRadialGradient1011)"></circle><circle r="25" cx="91.17" cy="520.2" fill="url(#SvgjsRadialGradient1011)"></circle><circle r="25" cx="194.84" cy="639.66" fill="url(#SvgjsRadialGradient1011)"></circle><circle r="25" cx="379.31" cy="704.5" fill="url(#SvgjsRadialGradient1011)"></circle><circle r="25" cx="834.64" cy="561.86" fill="url(#SvgjsRadialGradient1011)"></circle><circle r="25" cx="849.06" cy="643.65" fill="url(#SvgjsRadialGradient1011)"></circle><circle r="25" cx="1123.33" cy="192.05" fill="url(#SvgjsRadialGradient1011)"></circle><circle r="25" cx="1120.62" cy="394.7" fill="url(#SvgjsRadialGradient1011)"></circle><circle r="25" cx="1132.9" cy="546.85" fill="url(#SvgjsRadialGradient1011)"></circle><circle r="25" cx="1253.3" cy="525.25" fill="url(#SvgjsRadialGradient1011)"></circle><circle r="25" cx="1541.25" cy="-46.57" fill="url(#SvgjsRadialGradient1011)"></circle><circle r="25" cx="1557.82" cy="108.43" fill="url(#SvgjsRadialGradient1011)"></circle><circle r="5" cx="-64.21" cy="676.84" fill="rgba(255, 239, 190, 0.755)"></circle><circle r="5" cx="54.17" cy="677.39" fill="rgba(255, 239, 190, 0.755)"></circle><circle r="5" cx="348.82" cy="506.8" fill="rgba(255, 239, 190, 0.755)"></circle><circle r="5" cx="537.7" cy="403.84" fill="rgba(255, 239, 190, 0.755)"></circle><circle r="5" cx="548.21" cy="501.15" fill="rgba(255, 239, 190, 0.755)"></circle><circle r="5" cx="544.15" cy="673.3" fill="rgba(255, 239, 190, 0.755)"></circle><circle r="5" cx="702.1" cy="385.11" fill="rgba(255, 239, 190, 0.755)"></circle><circle r="5" cx="651.71" cy="509.76" fill="rgba(255, 239, 190, 0.755)"></circle><circle r="5" cx="660.09" cy="706.32" fill="rgba(255, 239, 190, 0.755)"></circle><circle r="5" cx="852.26" cy="337.91" fill="rgba(255, 239, 190, 0.755)"></circle><circle r="5" cx="971.36" cy="358.76" fill="rgba(255, 239, 190, 0.755)"></circle><circle r="5" cx="945.07" cy="558.92" fill="rgba(255, 239, 190, 0.755)"></circle><circle r="5" cx="989.26" cy="703.22" fill="rgba(255, 239, 190, 0.755)"></circle><circle r="5" cx="1143.69" cy="697.28" fill="rgba(255, 239, 190, 0.755)"></circle><circle r="5" cx="1311.36" cy="-61.57" fill="rgba(255, 239, 190, 0.755)"></circle><circle r="5" cx="1299.75" cy="96.27" fill="rgba(255, 239, 190, 0.755)"></circle><circle r="5" cx="1280.29" cy="212.82" fill="rgba(255, 239, 190, 0.755)"></circle><circle r="5" cx="1245.1" cy="370.73" fill="rgba(255, 239, 190, 0.755)"></circle><circle r="5" cx="1299.53" cy="647.88" fill="rgba(255, 239, 190, 0.755)"></circle><circle r="5" cx="1446.8" cy="-51.52" fill="rgba(255, 239, 190, 0.755)"></circle><circle r="5" cx="1460.15" cy="58.69" fill="rgba(255, 239, 190, 0.755)"></circle><circle r="5" cx="1443.63" cy="226.94" fill="rgba(255, 239, 190, 0.755)"></circle><circle r="5" cx="1414.31" cy="337.93" fill="rgba(255, 239, 190, 0.755)"></circle><circle r="5" cx="1432.58" cy="551.25" fill="rgba(255, 239, 190, 0.755)"></circle><circle r="5" cx="1411.82" cy="638.36" fill="rgba(255, 239, 190, 0.755)"></circle><circle r="5" cx="1570.23" cy="201.36" fill="rgba(255, 239, 190, 0.755)"></circle><circle r="5" cx="1564.09" cy="360.55" fill="rgba(255, 239, 190, 0.755)"></circle><circle r="5" cx="1603.91" cy="502.27" fill="rgba(255, 239, 190, 0.755)"></circle><circle r="5" cx="1539.69" cy="700.83" fill="rgba(255, 239, 190, 0.755)"></circle></g><defs><mask id="SvgjsMask1010"><rect width="1440" height="560" fill="#ffffff"></rect></mask><radialGradient id="SvgjsRadialGradient1011"><stop stop-color="#ffffff" offset="0.1"></stop><stop stop-color="rgba(255, 191, 0, 0.51)" offset="0.2"></stop><stop stop-color="rgba(255, 191, 0, 0)" offset="1"></stop></radialGradient></defs></svg>